<svg width="34" height="34" viewBox="0 0 34 34" fill="none" xmlns="http://www.w3.org/2000/svg">
<path d="M17.0023 12.0002C15.6762 12.0002 14.4045 12.5269 13.4668 13.4646C12.5291 14.4023 12.0023 15.6741 12.0023 17.0002C12.0023 18.3262 12.5291 19.598 13.4668 20.5357C14.4045 21.4734 15.6762 22.0002 17.0023 22.0002C18.3284 22.0002 19.6002 21.4734 20.5379 20.5357C21.4755 19.598 22.0023 18.3262 22.0023 17.0002C22.0023 15.6741 21.4755 14.4023 20.5379 13.4646C19.6002 12.5269 18.3284 12.0002 17.0023 12.0002ZM17.0023 8.66683C19.2125 8.66683 21.3321 9.5448 22.8949 11.1076C24.4577 12.6704 25.3356 14.79 25.3356 17.0002C25.3356 19.2103 24.4577 21.3299 22.8949 22.8927C21.3321 24.4555 19.2125 25.3335 17.0023 25.3335C14.7922 25.3335 12.6726 24.4555 11.1098 22.8927C9.54696 21.3299 8.66898 19.2103 8.66898 17.0002C8.66898 14.79 9.54696 12.6704 11.1098 11.1076C12.6726 9.5448 14.7922 8.66683 17.0023 8.66683ZM27.8356 8.25016C27.8356 8.8027 27.6162 9.3326 27.2255 9.7233C26.8348 10.114 26.3048 10.3335 25.7523 10.3335C25.1998 10.3335 24.6699 10.114 24.2792 9.7233C23.8885 9.3326 23.669 8.8027 23.669 8.25016C23.669 7.69763 23.8885 7.16772 24.2792 6.77702C24.6699 6.38632 25.1998 6.16683 25.7523 6.16683C26.3048 6.16683 26.8348 6.38632 27.2255 6.77702C27.6162 7.16772 27.8356 7.69763 27.8356 8.25016ZM17.0023 3.66683C12.879 3.66683 12.2057 3.6785 10.2873 3.7635C8.98065 3.82516 8.10398 4.00016 7.29065 4.31683C6.61037 4.56745 5.99519 4.96789 5.49065 5.4885C4.96944 5.99286 4.56842 6.60806 4.31732 7.2885C4.00065 8.10516 3.82565 8.98016 3.76565 10.2852C3.67898 12.1252 3.66732 12.7685 3.66732 17.0002C3.66732 21.1252 3.67898 21.7968 3.76398 23.7152C3.82565 25.0202 4.00065 25.8985 4.31565 26.7102C4.59898 27.4352 4.93232 27.9568 5.48565 28.5102C6.04732 29.0702 6.56898 29.4052 7.28565 29.6818C8.10898 30.0002 8.98565 30.1768 10.2857 30.2368C12.1257 30.3235 12.769 30.3335 17.0007 30.3335C21.1257 30.3335 21.7973 30.3218 23.7156 30.2368C25.019 30.1752 25.8957 30.0002 26.7107 29.6852C27.3909 29.4345 28.0061 29.0341 28.5107 28.5135C29.0723 27.9535 29.4073 27.4318 29.684 26.7135C30.0007 25.8935 30.1773 25.0168 30.2373 23.7135C30.324 21.8752 30.334 21.2302 30.334 17.0002C30.334 12.8768 30.3223 12.2035 30.2373 10.2852C30.1756 8.98183 29.999 8.10183 29.684 7.2885C29.4334 6.60822 29.0329 5.99303 28.5123 5.4885C28.008 4.96728 27.3928 4.56627 26.7123 4.31516C25.8956 3.9985 25.019 3.8235 23.7156 3.7635C21.8773 3.67683 21.234 3.66683 17.0007 3.66683M17.0007 0.333496C21.529 0.333496 22.094 0.350163 23.8723 0.433496C25.6456 0.516829 26.8556 0.795163 27.9173 1.2085C29.0173 1.63183 29.944 2.20516 30.8707 3.13016C31.7185 3.96305 32.3743 4.97095 32.7923 6.0835C33.204 7.14516 33.484 8.35516 33.5673 10.1302C33.6457 11.9068 33.6673 12.4718 33.6673 17.0002C33.6673 21.5285 33.6507 22.0935 33.5673 23.8702C33.484 25.6468 33.204 26.8535 32.7923 27.9168C32.3743 29.0294 31.7185 30.0373 30.8707 30.8702C30.0378 31.718 29.0299 32.3738 27.9173 32.7918C26.8556 33.2035 25.6456 33.4835 23.8723 33.5668C22.094 33.6452 21.529 33.6668 17.0007 33.6668C12.4723 33.6668 11.9073 33.6502 10.129 33.5668C8.35565 33.4835 7.14732 33.2035 6.08398 32.7918C4.97144 32.3738 3.96354 31.718 3.13065 30.8702C2.28283 30.0373 1.62701 29.0294 1.20898 27.9168C0.795651 26.8552 0.517318 25.6452 0.433984 23.8702C0.353984 22.0935 0.333984 21.5285 0.333984 17.0002C0.333984 12.4718 0.350651 11.9068 0.433984 10.1302C0.517318 8.3535 0.795651 7.14683 1.20898 6.0835C1.62701 4.97095 2.28283 3.96305 3.13065 3.13016C3.96354 2.28234 4.97144 1.62652 6.08398 1.2085C7.14565 0.795163 8.35398 0.516829 10.129 0.433496C11.909 0.355163 12.474 0.333496 17.0023 0.333496" fill="#FAFAFA"/>
</svg>
