<svg aria-hidden="true" style="position: absolute; width: 0; height: 0; overflow: hidden;" version="1.1" xmlns="http://www.w3.org/2000/svg" xmlns:xlink="http://www.w3.org/1999/xlink">
  <defs>

<symbol id="icon-arrow-right" viewBox="0 0 32 32">
<path stroke-width="2" stroke-miterlimit="4" stroke-linecap="round" stroke-linejoin="round" d="M16 29.998l14-14M30 15.998l-14-14M30 15.998h-28"></path>
</symbol>

<symbol id="icon-arrow_bottom" viewBox="0 0 55 32">
<path d="M54.714 4.364l-27.078 27.078-27.078-27.078 3.095-3.095 23.983 23.985 23.983-23.983 3.095 3.092z"></path>
</symbol>

<symbol id="icon-arrow-bottom-left" viewBox="0 0 32 32">
<path d="M6.405 27.689l24.272-0.002-0.013 2.979h-29.332v-29.332l2.979-0.013-0.004 24.274 25.309-25.309 2.095 2.095-25.307 25.307z"></path>
</symbol>

<symbol id="icon-arrow-in-bottom" viewBox="0 0 56 32">
<path d="M25.153 28.628l-22.628-22.628 5.656-5.656 19.8 19.8 19.8-19.8 5.656 5.656-22.628 22.628c-0.75 0.75-1.767 1.171-2.828 1.171s-2.078-0.421-2.828-1.171z"></path>
</symbol>

<symbol id="icon-telegram" viewBox="0 0 32 32">
<path d="M16.001 0.314c-8.659 0-15.686 7.027-15.686 15.686s7.027 15.686 15.686 15.686c8.659 0 15.686-7.027 15.686-15.686s-7.027-15.686-15.686-15.686zM23.279 10.98c-0.235 2.478-1.255 8.502-1.773 11.278-0.22 1.176-0.659 1.569-1.067 1.616-0.91 0.078-1.6-0.596-2.478-1.176-1.38-0.91-2.165-1.475-3.498-2.353-1.553-1.020-0.549-1.584 0.345-2.494 0.235-0.235 4.251-3.89 4.329-4.22 0.011-0.050 0.009-0.102-0.004-0.151s-0.039-0.094-0.074-0.131c-0.094-0.078-0.22-0.047-0.329-0.031-0.141 0.031-2.337 1.49-6.62 4.376-0.627 0.424-1.192 0.643-1.694 0.627-0.565-0.016-1.631-0.314-2.431-0.58-0.988-0.314-1.757-0.486-1.694-1.035 0.031-0.282 0.424-0.565 1.161-0.863 4.58-1.992 7.623-3.31 9.145-3.937 4.361-1.82 5.255-2.133 5.851-2.133 0.125 0 0.423 0.031 0.612 0.188 0.157 0.126 0.204 0.298 0.22 0.424-0.016 0.094 0.016 0.376 0 0.596z"></path>
</symbol>

<symbol id="icon-watsapp" viewBox="0 0 32 32">
<path d="M16.002 0.314c8.664 0 15.686 7.023 15.686 15.686s-7.023 15.686-15.686 15.686c-2.772 0.005-5.496-0.729-7.89-2.126l-7.79 2.126 2.121-7.793c-1.398-2.395-2.132-5.12-2.127-7.893 0-8.664 7.023-15.686 15.686-15.686zM10.657 8.627l-0.314 0.013c-0.203 0.014-0.401 0.067-0.584 0.157-0.17 0.096-0.325 0.217-0.461 0.358-0.188 0.177-0.295 0.331-0.409 0.48-0.58 0.754-0.893 1.68-0.888 2.632 0.003 0.769 0.204 1.517 0.518 2.216 0.642 1.415 1.697 2.913 3.090 4.301 0.336 0.334 0.665 0.67 1.020 0.982 1.731 1.524 3.793 2.623 6.024 3.209l0.891 0.136c0.29 0.016 0.58-0.006 0.872-0.020 0.457-0.024 0.903-0.148 1.307-0.362 0.205-0.106 0.406-0.221 0.601-0.345 0 0 0.066-0.045 0.196-0.141 0.212-0.157 0.342-0.268 0.518-0.452 0.132-0.136 0.241-0.294 0.329-0.474 0.122-0.256 0.245-0.744 0.295-1.15 0.038-0.311 0.027-0.48 0.022-0.585-0.006-0.168-0.146-0.342-0.298-0.416l-0.913-0.409c0 0-1.365-0.595-2.199-0.974-0.087-0.038-0.181-0.060-0.276-0.064-0.107-0.011-0.216 0.001-0.318 0.035s-0.196 0.090-0.275 0.164c-0.008-0.003-0.113 0.086-1.247 1.46-0.065 0.087-0.155 0.154-0.258 0.19s-0.214 0.041-0.32 0.014c-0.102-0.027-0.202-0.062-0.3-0.104-0.195-0.082-0.262-0.113-0.395-0.169-0.901-0.392-1.734-0.923-2.471-1.573-0.198-0.173-0.381-0.361-0.569-0.543-0.617-0.591-1.155-1.26-1.6-1.989l-0.093-0.149c-0.066-0.101-0.119-0.209-0.16-0.322-0.060-0.231 0.096-0.416 0.096-0.416s0.381-0.417 0.559-0.643c0.173-0.22 0.318-0.433 0.413-0.585 0.185-0.298 0.243-0.604 0.146-0.841-0.439-1.073-0.893-2.14-1.362-3.202-0.093-0.21-0.367-0.361-0.616-0.391-0.085-0.010-0.169-0.019-0.254-0.025-0.211-0.012-0.422-0.010-0.632 0.006l0.317-0.011z"></path>
</symbol>

<symbol id="icon-filetype-pdf" viewBox="0 0 32 32">
<path d="M28 9v19c0 1.061-0.421 2.078-1.172 2.828s-1.768 1.172-2.828 1.172h-2v-2h2c0.53 0 1.039-0.211 1.414-0.586s0.586-0.884 0.586-1.414v-19h-4c-0.796 0-1.559-0.316-2.121-0.879s-0.879-1.326-0.879-2.121v-4h-11c-0.53 0-1.039 0.211-1.414 0.586s-0.586 0.884-0.586 1.414v18h-2v-18c0-1.061 0.421-2.078 1.172-2.828s1.768-1.172 2.828-1.172h11l9 9zM3.2 23.7h-3.2v7.998h1.582v-2.684h1.606c0.573 0 1.061-0.115 1.464-0.346 0.407-0.233 0.715-0.549 0.926-0.948 0.22-0.417 0.33-0.883 0.322-1.354 0-0.5-0.105-0.951-0.316-1.354-0.211-0.398-0.53-0.729-0.92-0.954-0.4-0.24-0.888-0.359-1.464-0.358zM4.29 26.366c0.007 0.263-0.052 0.525-0.17 0.76-0.106 0.205-0.272 0.373-0.476 0.482-0.233 0.115-0.49 0.171-0.75 0.164h-1.318v-2.812h1.32c0.436 0 0.777 0.121 1.024 0.362 0.247 0.244 0.37 0.592 0.37 1.044zM6.724 23.7v7.998h2.92c0.803 0 1.468-0.158 1.996-0.474 0.534-0.32 0.952-0.803 1.19-1.378 0.261-0.6 0.392-1.323 0.392-2.168 0-0.84-0.131-1.557-0.392-2.15-0.236-0.568-0.649-1.045-1.178-1.36-0.528-0.312-1.198-0.468-2.010-0.468h-2.918zM8.306 24.99h1.126c0.495 0 0.901 0.101 1.218 0.304 0.329 0.217 0.578 0.536 0.708 0.908 0.157 0.403 0.236 0.905 0.236 1.506 0.006 0.399-0.040 0.797-0.136 1.184-0.069 0.306-0.203 0.594-0.392 0.844-0.174 0.224-0.405 0.398-0.668 0.504-0.309 0.115-0.637 0.171-0.966 0.164h-1.126v-5.414zM15.792 28.516v3.182h-1.58v-7.998h5.096v1.306h-3.516v2.234h3.212v1.276h-3.212z"></path>
</symbol>

<symbol id="icon-left-swiper" viewBox="0 0 31 32">
<path d="M4.371 17.086l12.587 12.585-1.551 1.538-15.21-15.21 15.21-15.21 1.551 1.538-12.589 12.585h26.248v2.173h-26.246z"></path>
</symbol>

<symbol id="icon-telegram" viewBox="0 0 32 32">
<path d="M16.001 0.314c-8.659 0-15.686 7.027-15.686 15.686s7.027 15.686 15.686 15.686c8.659 0 15.686-7.027 15.686-15.686s-7.027-15.686-15.686-15.686zM23.279 10.981c-0.235 2.479-1.255 8.502-1.773 11.278-0.22 1.176-0.659 1.569-1.067 1.616-0.91 0.078-1.6-0.596-2.478-1.176-1.38-0.91-2.165-1.474-3.498-2.353-1.553-1.020-0.549-1.584 0.345-2.494 0.235-0.235 4.251-3.89 4.329-4.22 0.011-0.050 0.009-0.102-0.004-0.151s-0.039-0.094-0.074-0.131c-0.094-0.078-0.22-0.047-0.329-0.031-0.141 0.031-2.337 1.49-6.62 4.376-0.627 0.424-1.192 0.643-1.694 0.627-0.565-0.016-1.631-0.314-2.431-0.58-0.988-0.314-1.757-0.486-1.694-1.035 0.031-0.282 0.424-0.565 1.161-0.863 4.58-1.992 7.623-3.31 9.145-3.937 4.361-1.82 5.255-2.133 5.851-2.133 0.125 0 0.423 0.031 0.612 0.188 0.157 0.125 0.204 0.298 0.22 0.424-0.016 0.094 0.016 0.376 0 0.596z"></path>
</symbol>

<symbol id="icon-watsapp" viewBox="0 0 32 32">
<path d="M16.002 0.314c8.664 0 15.686 7.023 15.686 15.686s-7.023 15.686-15.686 15.686c-2.772 0.005-5.496-0.729-7.89-2.125l-7.79 2.125 2.121-7.793c-1.398-2.395-2.132-5.12-2.127-7.893 0-8.664 7.023-15.686 15.686-15.686zM10.657 8.628l-0.314 0.013c-0.203 0.014-0.401 0.067-0.584 0.157-0.17 0.097-0.325 0.217-0.461 0.358-0.188 0.177-0.295 0.331-0.409 0.48-0.58 0.754-0.893 1.681-0.888 2.632 0.003 0.769 0.204 1.517 0.518 2.216 0.642 1.415 1.697 2.913 3.090 4.301 0.336 0.334 0.665 0.67 1.020 0.982 1.731 1.524 3.793 2.623 6.024 3.209l0.891 0.136c0.29 0.016 0.58-0.006 0.872-0.020 0.457-0.024 0.903-0.148 1.307-0.362 0.205-0.106 0.406-0.221 0.601-0.345 0 0 0.066-0.045 0.196-0.141 0.212-0.157 0.342-0.268 0.518-0.452 0.132-0.136 0.241-0.294 0.329-0.474 0.122-0.256 0.245-0.744 0.295-1.15 0.038-0.311 0.027-0.48 0.022-0.585-0.006-0.168-0.146-0.342-0.298-0.416l-0.913-0.409c0 0-1.365-0.595-2.199-0.974-0.087-0.038-0.181-0.060-0.276-0.064-0.107-0.011-0.216 0.001-0.318 0.035s-0.196 0.090-0.275 0.164c-0.008-0.003-0.113 0.086-1.247 1.46-0.065 0.087-0.155 0.154-0.258 0.19s-0.214 0.041-0.32 0.014c-0.102-0.027-0.202-0.062-0.3-0.104-0.195-0.081-0.262-0.113-0.395-0.169-0.901-0.392-1.734-0.923-2.471-1.573-0.198-0.173-0.381-0.361-0.569-0.543-0.617-0.591-1.155-1.26-1.6-1.989l-0.093-0.149c-0.066-0.101-0.119-0.209-0.16-0.322-0.060-0.231 0.096-0.416 0.096-0.416s0.381-0.417 0.559-0.643c0.173-0.22 0.318-0.433 0.413-0.585 0.185-0.298 0.243-0.604 0.146-0.841-0.439-1.073-0.893-2.14-1.362-3.202-0.093-0.21-0.367-0.361-0.616-0.391-0.085-0.010-0.169-0.019-0.254-0.025-0.211-0.012-0.422-0.010-0.632 0.006l0.317-0.011z"></path>
</symbol>

<symbol id="icon-instagram" viewBox="0 0 32 32">
<path d="M16.002 11.294c-1.248 0-2.445 0.496-3.328 1.378s-1.378 2.080-1.378 3.328c0 1.248 0.496 2.445 1.378 3.328s2.079 1.378 3.328 1.378c1.248 0 2.445-0.496 3.328-1.378s1.378-2.080 1.378-3.328c0-1.248-0.496-2.445-1.378-3.328s-2.080-1.378-3.328-1.378zM16.002 8.157c2.080 0 4.075 0.826 5.546 2.297s2.297 3.466 2.297 5.546c0 2.080-0.826 4.075-2.297 5.546s-3.466 2.297-5.546 2.297c-2.080 0-4.075-0.826-5.546-2.297s-2.297-3.466-2.297-5.546c0-2.080 0.826-4.075 2.297-5.546s3.466-2.297 5.546-2.297zM26.198 7.765c0 0.52-0.206 1.019-0.574 1.387s-0.867 0.574-1.387 0.574c-0.52 0-1.019-0.207-1.386-0.574s-0.574-0.866-0.574-1.386c0-0.52 0.207-1.019 0.574-1.386s0.866-0.574 1.386-0.574c0.52 0 1.019 0.207 1.387 0.574s0.574 0.866 0.574 1.386zM16.002 3.451c-3.881 0-4.514 0.011-6.32 0.091-1.23 0.058-2.055 0.223-2.82 0.521-0.64 0.236-1.219 0.613-1.694 1.103-0.491 0.475-0.868 1.054-1.104 1.694-0.298 0.769-0.463 1.592-0.519 2.82-0.082 1.732-0.093 2.337-0.093 6.32 0 3.882 0.011 4.514 0.091 6.32 0.058 1.228 0.223 2.055 0.519 2.819 0.267 0.682 0.58 1.173 1.101 1.694 0.529 0.527 1.020 0.842 1.694 1.103 0.775 0.3 1.6 0.466 2.824 0.522 1.732 0.082 2.337 0.091 6.32 0.091 3.882 0 4.514-0.011 6.32-0.091 1.227-0.058 2.052-0.223 2.819-0.519 0.64-0.236 1.219-0.613 1.694-1.103 0.529-0.527 0.844-1.018 1.104-1.694 0.298-0.772 0.464-1.597 0.521-2.824 0.082-1.73 0.091-2.337 0.091-6.318 0-3.881-0.011-4.515-0.091-6.32-0.058-1.227-0.224-2.055-0.521-2.82-0.236-0.64-0.613-1.219-1.103-1.694-0.475-0.491-1.054-0.868-1.694-1.104-0.769-0.298-1.594-0.463-2.82-0.519-1.73-0.082-2.336-0.091-6.32-0.091zM16.001 0.314c4.262 0 4.794 0.016 6.467 0.094 1.669 0.078 2.808 0.34 3.807 0.729 1.035 0.398 1.907 0.938 2.78 1.809 0.798 0.784 1.415 1.732 1.809 2.78 0.387 0.999 0.651 2.138 0.729 3.809 0.074 1.672 0.094 2.204 0.094 6.466s-0.016 4.794-0.094 6.466c-0.078 1.672-0.342 2.808-0.729 3.809-0.393 1.047-1.011 1.996-1.809 2.78-0.784 0.798-1.733 1.415-2.78 1.809-0.999 0.387-2.138 0.651-3.807 0.729-1.674 0.074-2.205 0.094-6.467 0.094s-4.794-0.016-6.467-0.094c-1.669-0.078-2.806-0.342-3.807-0.729-1.047-0.393-1.996-1.011-2.78-1.809-0.798-0.784-1.415-1.733-1.809-2.78-0.389-0.999-0.651-2.138-0.729-3.809-0.075-1.672-0.094-2.204-0.094-6.466s0.016-4.794 0.094-6.466c0.078-1.672 0.34-2.808 0.729-3.809 0.393-1.047 1.011-1.996 1.809-2.78 0.784-0.798 1.732-1.415 2.78-1.809 0.999-0.389 2.136-0.651 3.807-0.729 1.675-0.074 2.207-0.094 6.469-0.094z"></path>
</symbol>

<symbol id="icon-linkedin" viewBox="0 0 32 32">
<path d="M28.444 0c0.943 0 1.847 0.375 2.514 1.041s1.041 1.571 1.041 2.514v24.889c0 0.943-0.375 1.847-1.041 2.514s-1.571 1.041-2.514 1.041h-24.889c-0.943 0-1.847-0.375-2.514-1.041s-1.041-1.571-1.041-2.514v-24.889c0-0.943 0.375-1.847 1.041-2.514s1.571-1.041 2.514-1.041h24.889zM27.556 27.556v-9.422c0-1.537-0.611-3.011-1.698-4.098s-2.561-1.697-4.098-1.697c-1.511 0-3.271 0.924-4.124 2.311v-1.973h-4.96v14.88h4.96v-8.764c0-1.369 1.102-2.489 2.471-2.489 0.66 0 1.293 0.262 1.76 0.729s0.729 1.1 0.729 1.76v8.764h4.96zM6.898 9.884c0.792 0 1.552-0.315 2.112-0.875s0.875-1.32 0.875-2.112c0-1.653-1.333-3.004-2.987-3.004-0.797 0-1.561 0.317-2.124 0.88s-0.88 1.328-0.88 2.124c0 1.653 1.351 2.987 3.004 2.987zM9.369 27.556v-14.88h-4.924v14.88h4.924z"></path>
</symbol>

<symbol id="icon-close" viewBox="0 0 32 32">
<path d="M3.133 31.292l-1.716-1.716 13.576-13.576-13.576-13.576 1.716-1.716 13.576 13.576 13.576-13.576 1.716 1.716-13.576 13.576 13.576 13.576-1.716 1.716-13.576-13.576-13.576 13.576z"></path>
</symbol>

<symbol id="icon-separator-arrow" viewBox="0 0 18 32">
<path d="M17.559 17.651l-14.047 13.207-3.511-3.301 12.292-11.556-12.292-11.556 3.511-3.301 14.047 13.207c0.466 0.438 0.727 1.031 0.727 1.651s-0.262 1.213-0.727 1.651z"></path>
</symbol>

<symbol id="icon-Line-short" viewBox="0 0 100 1" preserveAspectRatio="none">
  <line
    x1="0" y1="0.5" x2="100" y2="0.5"
    stroke="currentColor"
    stroke-width="1"
    stroke-linecap="round"
  />
</symbol>

<symbol id="icon-Line-long" viewBox="0 0 100 1" preserveAspectRatio="none">
  <line
    x1="0" y1="0.5" x2="100" y2="0.5"
    stroke="currentColor"
    stroke-width="1"
    stroke-linecap="round"
  />
</symbol>

</defs>
</svg>