<svg width="34" height="34" viewBox="0 0 34 34" fill="none" xmlns="http://www.w3.org/2000/svg">
<path d="M17.0007 0.333496C7.80065 0.333496 0.333984 7.80016 0.333984 17.0002C0.333984 26.2002 7.80065 33.6668 17.0007 33.6668C26.2007 33.6668 33.6673 26.2002 33.6673 17.0002C33.6673 7.80016 26.2007 0.333496 17.0007 0.333496ZM24.734 11.6668C24.484 14.3002 23.4007 20.7002 22.8507 23.6502C22.6173 24.9002 22.1507 25.3168 21.7173 25.3668C20.7507 25.4502 20.0173 24.7335 19.084 24.1168C17.6173 23.1502 16.784 22.5502 15.3673 21.6168C13.7173 20.5335 14.784 19.9335 15.734 18.9668C15.984 18.7168 20.2507 14.8335 20.334 14.4835C20.3456 14.4305 20.344 14.3754 20.3295 14.3232C20.315 14.2709 20.2879 14.2229 20.2507 14.1835C20.1507 14.1002 20.0173 14.1335 19.9007 14.1502C19.7507 14.1835 17.4173 15.7335 12.8673 18.8002C12.2007 19.2502 11.6006 19.4835 11.0673 19.4668C10.4673 19.4502 9.33398 19.1335 8.48398 18.8502C7.43398 18.5168 6.61732 18.3335 6.68398 17.7502C6.71732 17.4502 7.13398 17.1502 7.91732 16.8335C12.784 14.7168 16.0173 13.3168 17.634 12.6502C22.2673 10.7168 23.2173 10.3835 23.8507 10.3835C23.984 10.3835 24.3006 10.4168 24.5007 10.5835C24.6673 10.7168 24.7173 10.9002 24.734 11.0335C24.7173 11.1335 24.7506 11.4335 24.734 11.6668Z" fill="#FAFAFA"/>
</svg>
