<svg width="34" height="34" viewBox="0 0 34 34" fill="none" xmlns="http://www.w3.org/2000/svg">
<path d="M17.0026 0.333496C26.2076 0.333496 33.6693 7.79516 33.6693 17.0002C33.6693 26.2052 26.2076 33.6668 17.0026 33.6668C14.0572 33.6719 11.1636 32.8924 8.6193 31.4085L0.34263 33.6668L2.59596 25.3868C1.11089 22.8417 0.330801 19.9469 0.335963 17.0002C0.335963 7.79516 7.79763 0.333496 17.0026 0.333496ZM11.3226 9.16683L10.9893 9.18016C10.7738 9.19501 10.5632 9.25162 10.3693 9.34683C10.1886 9.44935 10.0236 9.57732 9.8793 9.72683C9.6793 9.91516 9.56596 10.0785 9.4443 10.2368C8.82783 11.0383 8.49592 12.0224 8.50096 13.0335C8.5043 13.8502 8.71763 14.6452 9.05096 15.3885C9.73263 16.8918 10.8543 18.4835 12.3343 19.9585C12.691 20.3135 13.041 20.6702 13.4176 21.0018C15.2567 22.6208 17.4481 23.7884 19.8176 24.4118L20.7643 24.5568C21.0726 24.5735 21.381 24.5502 21.691 24.5352C22.1763 24.5096 22.6501 24.3782 23.0793 24.1502C23.2974 24.0374 23.5104 23.9151 23.7176 23.7835C23.7176 23.7835 23.7882 23.7357 23.926 23.6335C24.151 23.4668 24.2893 23.3485 24.476 23.1535C24.616 23.0091 24.7326 22.8413 24.826 22.6502C24.956 22.3785 25.086 21.8602 25.1393 21.4285C25.1793 21.0985 25.1676 20.9185 25.1626 20.8068C25.156 20.6285 25.0076 20.4435 24.846 20.3652L23.876 19.9302C23.876 19.9302 22.426 19.2985 21.5393 18.8952C21.4465 18.8548 21.3471 18.8316 21.246 18.8268C21.1319 18.8149 21.0166 18.8276 20.9079 18.8641C20.7992 18.9007 20.6997 18.9601 20.616 19.0385C20.6076 19.0352 20.496 19.1302 19.291 20.5902C19.2218 20.6831 19.1265 20.7533 19.0173 20.7919C18.9081 20.8305 18.7898 20.8357 18.6776 20.8068C18.569 20.7779 18.4626 20.7411 18.3593 20.6968C18.1526 20.6102 18.081 20.5768 17.9393 20.5168C16.9824 20.1 16.0967 19.536 15.3143 18.8452C15.1043 18.6618 14.9093 18.4618 14.7093 18.2685C14.0536 17.6405 13.4822 16.9301 13.0093 16.1552L12.911 15.9968C12.8414 15.8898 12.7844 15.7752 12.741 15.6552C12.6776 15.4102 12.8426 15.2135 12.8426 15.2135C12.8426 15.2135 13.2476 14.7702 13.436 14.5302C13.6193 14.2968 13.7743 14.0702 13.8743 13.9085C14.071 13.5918 14.1326 13.2668 14.0293 13.0152C13.5626 11.8752 13.0804 10.7413 12.5826 9.6135C12.4843 9.39016 12.1926 9.23016 11.9276 9.1985C11.8376 9.18738 11.7476 9.1785 11.6576 9.17183C11.4338 9.15899 11.2094 9.16122 10.986 9.1785L11.3226 9.16683Z" fill="#FAFAFA"/>
</svg>
