<svg width="40" height="40" viewBox="0 0 40 40" fill="none" xmlns="http://www.w3.org/2000/svg">
<path d="M16.4643 3.53498L14.7243 5.27498L17.1118 7.66248L19.6118 10.1625C20.1812 9.8808 20.8131 9.74911 21.4476 9.77988C22.0821 9.81065 22.6983 10.0029 23.2378 10.3383C23.7772 10.6738 24.2222 11.1414 24.5304 11.6968C24.8387 12.2523 25.0001 12.8772 24.9993 13.5125C24.9859 14.0794 24.8539 14.6372 24.6118 15.15L27.1868 17.65C27.8621 17.2598 28.6524 17.1175 29.4214 17.2476C30.1904 17.3776 30.8899 17.7719 31.3993 18.3625C31.7553 18.7038 32.0368 19.1151 32.2261 19.5706C32.4154 20.026 32.5084 20.5156 32.4993 21.0087C32.5001 21.9934 32.1162 22.9394 31.4293 23.645C31.0837 24.0059 30.6673 24.2915 30.2061 24.4838C29.7449 24.6761 29.2489 24.771 28.7493 24.7625C28.2551 24.7702 27.7644 24.6779 27.3069 24.491C26.8493 24.3041 26.4343 24.0265 26.0868 23.675C25.4981 23.1613 25.1064 22.4589 24.9787 21.6881C24.851 20.9173 24.9953 20.1261 25.3868 19.45L22.8868 16.875C22.7605 16.9321 22.6312 16.9822 22.4993 17.025V25C23.225 25.2585 23.8535 25.7342 24.2993 26.3625C24.7543 26.987 24.9994 27.7398 24.9993 28.5125C25.0091 29.0075 24.9167 29.4992 24.7279 29.9569C24.5391 30.4146 24.2578 30.8284 23.9018 31.1725C23.2211 31.8524 22.3037 32.2425 21.3418 32.2612C20.6467 32.283 19.9594 32.1097 19.3577 31.7612C18.7559 31.4126 18.2637 30.9026 17.9367 30.2888C17.6098 29.675 17.4611 28.982 17.5075 28.2882C17.5539 27.5943 17.7935 26.9272 18.1993 26.3625C18.6451 25.7342 19.2736 25.2585 19.9993 25V17.025C19.272 16.7694 18.6427 16.2931 18.1993 15.6625C17.7427 15.0388 17.4975 14.2854 17.4993 13.5125C17.4983 12.9438 17.631 12.3829 17.8868 11.875L13.0118 6.99998L3.53807 16.465C3.07348 16.9292 2.70491 17.4804 2.4534 18.0872C2.20189 18.6939 2.07238 19.3442 2.07227 20.001C2.07215 20.6577 2.20143 21.3081 2.45272 21.9149C2.70402 22.5217 3.0724 23.0731 3.53682 23.5375L16.4643 36.465C17.402 37.4023 18.6735 37.9289 19.9993 37.9289C21.3251 37.9289 22.5967 37.4023 23.5343 36.465L36.4643 23.535C37.4017 22.5973 37.9283 21.3258 37.9283 20C37.9283 18.6742 37.4017 17.4026 36.4643 16.465L23.5343 3.53498C22.5967 2.59762 21.3251 2.07104 19.9993 2.07104C18.6735 2.07104 17.402 2.59762 16.4643 3.53498Z" fill="#E64A19"/>
</svg>
