<svg width="40" height="40" viewBox="0 0 40 40" fill="none" xmlns="http://www.w3.org/2000/svg">
<g clip-path="url(#clip0_25_2763)">
<path d="M20.2507 3.33325C18.062 3.33325 15.8947 3.76435 13.8726 4.60193C11.8505 5.4395 10.0132 6.66716 8.46554 8.21481C5.33993 11.3404 3.58398 15.5796 3.58398 19.9999C3.58398 27.3666 8.36732 33.6166 14.984 35.8333C15.8173 35.9666 16.084 35.4499 16.084 34.9999V32.1833C11.4673 33.1833 10.484 29.9499 10.484 29.9499C9.71732 28.0166 8.63398 27.4999 8.63398 27.4999C7.11732 26.4666 8.75065 26.4999 8.75065 26.4999C10.4173 26.6166 11.3007 28.2166 11.3007 28.2166C12.7507 30.7499 15.2007 29.9999 16.1507 29.5999C16.3007 28.5166 16.734 27.7833 17.2007 27.3666C13.5007 26.9499 9.61732 25.5166 9.61732 19.1666C9.61732 17.3166 10.2507 15.8333 11.334 14.6499C11.1673 14.2333 10.584 12.4999 11.5007 10.2499C11.5007 10.2499 12.9007 9.79992 16.084 11.9499C17.4007 11.5833 18.834 11.3999 20.2507 11.3999C21.6673 11.3999 23.1007 11.5833 24.4173 11.9499C27.6007 9.79992 29.0007 10.2499 29.0007 10.2499C29.9173 12.4999 29.334 14.2333 29.1673 14.6499C30.2507 15.8333 30.884 17.3166 30.884 19.1666C30.884 25.5333 26.984 26.9333 23.2673 27.3499C23.8673 27.8666 24.4173 28.8833 24.4173 30.4333V34.9999C24.4173 35.4499 24.684 35.9833 25.534 35.8333C32.1507 33.5999 36.9173 27.3666 36.9173 19.9999C36.9173 17.8112 36.4862 15.644 35.6486 13.6219C34.8111 11.5998 33.5834 9.76245 32.0358 8.21481C30.4881 6.66716 28.6508 5.4395 26.6287 4.60193C24.6066 3.76435 22.4393 3.33325 20.2507 3.33325Z" fill="#FAFAFA"/>
</g>
<defs>
<clipPath id="clip0_25_2763">
<rect width="40" height="40" fill="white"/>
</clipPath>
</defs>
</svg>
