<svg width="40" height="40" viewBox="0 0 40 40" fill="none" xmlns="http://www.w3.org/2000/svg">
<g clip-path="url(#clip0_25_2773)">
<path d="M26.7133 26.3116C27.3236 26.2469 27.8858 25.9505 28.2839 25.4834C28.6819 25.0163 28.8855 24.4142 28.8526 23.8014C28.8196 23.1886 28.5527 22.6118 28.1069 22.1901C27.6611 21.7683 27.0704 21.5338 26.4567 21.5349H26.3733C26.0594 21.5452 25.7506 21.6175 25.4648 21.7476C25.1789 21.8776 24.9215 22.0629 24.7074 22.2927C24.4934 22.5226 24.3269 22.7925 24.2175 23.0869C24.1081 23.3813 24.058 23.6944 24.07 24.0083C24.1117 24.6483 24.3683 25.2033 24.7533 25.5866C23.3033 28.4433 21.085 30.5333 17.7583 32.2816C15.4983 33.4766 13.1517 33.9016 10.8083 33.6033C8.88834 33.3483 7.395 32.4949 6.45834 31.0866C5.09167 28.9983 4.965 26.7366 6.11667 24.4783C6.92667 22.8566 8.205 21.6616 9.01667 21.0666C8.79688 20.3509 8.61167 19.6251 8.46167 18.8916C2.27834 23.3683 2.91834 29.4249 4.795 32.2816C6.20167 34.4149 9.05834 35.7366 12.2133 35.7366C13.0758 35.7421 13.9356 35.6414 14.7733 35.4366C20.2317 34.3699 24.3683 31.1299 26.7133 26.3116Z" fill="#8BC34A" stroke="#8BC34A" stroke-width="0.435" stroke-linejoin="round"/>
<path d="M34.2188 21.0232C30.9788 17.2282 26.2022 15.1398 20.7438 15.1398H20.0605C19.864 14.7548 19.5651 14.4314 19.1966 14.2053C18.8282 13.9791 18.4045 13.859 17.9722 13.8582H17.8872C17.5731 13.8685 17.2642 13.9408 16.9782 14.0709C16.6922 14.2011 16.4347 14.3865 16.2207 14.6165C16.0066 14.8466 15.8401 15.1166 15.7308 15.4112C15.6215 15.7059 15.5716 16.0192 15.5838 16.3332C15.6079 16.9509 15.87 17.5354 16.3151 17.9643C16.7602 18.3933 17.354 18.6336 17.9722 18.6348H18.0555C18.505 18.6135 18.9395 18.4663 19.3094 18.2099C19.6792 17.9535 19.9695 17.5983 20.1472 17.1848H20.9138C24.1555 17.1848 27.2255 18.1232 29.9972 19.9565C32.1305 21.3648 33.6638 23.1982 34.5172 25.4165C35.2422 27.2065 35.2005 28.9548 34.4338 30.4482C33.2388 32.7082 31.2338 33.9448 28.5905 33.9448C27.1516 33.9271 25.7306 33.6228 24.4105 33.0498C23.9422 33.4765 23.0888 34.1582 22.4922 34.5832C24.3255 35.4382 26.2022 35.9065 27.9922 35.9065C32.0872 35.9065 35.1155 33.6465 36.2672 31.3865C37.5038 28.9132 37.4172 24.6482 34.2188 21.0232Z" fill="#8BC34A" stroke="#8BC34A" stroke-width="0.435" stroke-linejoin="round"/>
<path d="M12.5552 27.0366C12.5788 27.6546 12.8407 28.2395 13.2858 28.6689C13.731 29.0982 14.325 29.3387 14.9435 29.3399H15.0285C15.3424 29.3296 15.6512 29.2574 15.9371 29.1273C16.223 28.9973 16.4803 28.812 16.6944 28.5821C16.9084 28.3523 17.0749 28.0824 17.1843 27.788C17.2937 27.4936 17.3439 27.1804 17.3318 26.8666C17.3082 26.2486 17.0463 25.6637 16.6011 25.2343C16.156 24.805 15.562 24.5645 14.9435 24.5633H14.8585C14.7735 24.5633 14.6452 24.5633 14.5585 24.6049C12.8118 21.7049 12.0868 18.5499 12.3418 15.1383C12.5135 12.5799 13.3652 10.3616 14.8585 8.52826C16.0952 6.94993 18.4835 6.18326 20.1035 6.13993C24.6235 6.05659 26.5435 11.6849 26.6702 13.9449C27.2252 14.0716 28.1635 14.3716 28.8035 14.5833C28.2918 7.67493 24.0268 4.09326 19.9335 4.09326C16.0952 4.09326 12.5552 6.86493 11.1485 10.9599C9.18683 16.4183 10.4652 21.6633 12.8535 25.7999C12.6162 26.1662 12.5109 26.6024 12.5552 27.0366Z" fill="#8BC34A" stroke="#8BC34A" stroke-width="0.435" stroke-linejoin="round"/>
</g>
<defs>
<clipPath id="clip0_25_2773">
<rect width="40" height="40" fill="white"/>
</clipPath>
</defs>
</svg>
