<svg width="40" height="40" viewBox="0 0 40 40" fill="none" xmlns="http://www.w3.org/2000/svg">
<g clip-path="url(#clip0_25_2781)">
<path d="M12 12L13.08 11.2187C12.9148 10.9905 12.6816 10.8205 12.4138 10.7331C12.1459 10.6456 11.8573 10.6453 11.5893 10.7321C11.3213 10.8188 11.0876 10.9883 10.9219 11.2161C10.7561 11.4438 10.6668 11.7183 10.6667 12H12ZM20 37.3333C15.4029 37.3333 10.9941 35.5071 7.74348 32.2565C4.49285 29.0059 2.66667 24.5971 2.66667 20H0C0 25.3043 2.10714 30.3914 5.85786 34.1421C9.60859 37.8929 14.6957 40 20 40V37.3333ZM37.3333 20C37.3333 22.2762 36.885 24.5302 36.0139 26.6332C35.1428 28.7362 33.8661 30.647 32.2565 32.2565C30.647 33.8661 28.7362 35.1428 26.6332 36.0139C24.5302 36.885 22.2762 37.3333 20 37.3333V40C25.3043 40 30.3914 37.8929 34.1421 34.1421C37.8929 30.3914 40 25.3043 40 20H37.3333ZM20 2.66667C22.2762 2.66667 24.5302 3.11501 26.6332 3.98609C28.7362 4.85717 30.647 6.13393 32.2565 7.74348C33.8661 9.35303 35.1428 11.2638 36.0139 13.3668C36.885 15.4698 37.3333 17.7238 37.3333 20H40C40 14.6957 37.8929 9.60859 34.1421 5.85786C30.3914 2.10714 25.3043 0 20 0V2.66667ZM20 0C14.6957 0 9.60859 2.10714 5.85786 5.85786C2.10714 9.60859 0 14.6957 0 20H2.66667C2.66667 15.4029 4.49285 10.9941 7.74348 7.74348C10.9941 4.49285 15.4029 2.66667 20 2.66667V0ZM13.3333 32V12H10.6667V32H13.3333ZM10.92 12.7813L28.2533 36.7813L30.4133 35.2187L13.08 11.2187L10.92 12.7813ZM26.6667 10.6667V26.6667H29.3333V10.6667H26.6667Z" fill="#FAFAFA"/>
</g>
<defs>
<clipPath id="clip0_25_2781">
<rect width="40" height="40" fill="white"/>
</clipPath>
</defs>
</svg>
