<svg width="65" height="40" viewBox="0 0 65 40" fill="none" xmlns="http://www.w3.org/2000/svg">
<g clip-path="url(#clip0_25_2785)">
<path d="M32.1337 39.8846C31.9136 39.8846 31.7082 39.8257 31.5174 39.7227L29.566 38.5596C29.2725 38.3976 29.4193 38.3387 29.5074 38.3093C29.9035 38.1768 29.9768 38.1472 30.3877 37.9118C30.4317 37.8823 30.4905 37.897 30.5344 37.9265L32.0311 38.8246C32.0897 38.854 32.1631 38.854 32.207 38.8246L38.0615 35.4235C38.1201 35.3941 38.1496 35.3351 38.1496 35.2616V28.4744C38.1496 28.4006 38.1201 28.3419 38.0615 28.3123L32.207 24.9261C32.1484 24.8965 32.075 24.8965 32.0311 24.9261L26.1766 28.3123C26.118 28.3418 26.0885 28.4154 26.0885 28.4742V35.2615C26.0885 35.3205 26.118 35.394 26.1766 35.4235L27.776 36.3511C28.6417 36.7927 29.1845 36.2774 29.1845 35.7621V29.0632C29.1845 28.9749 29.2579 28.8865 29.3606 28.8865H30.1089C30.197 28.8865 30.285 28.9601 30.285 29.0632V35.7621C30.285 36.9252 29.654 37.6025 28.5536 37.6025C28.2161 37.6025 27.9521 37.6025 27.2037 37.2344L25.6631 36.3511C25.2816 36.1303 25.0469 35.7179 25.0469 35.2763V28.489C25.0469 28.0474 25.2816 27.635 25.6631 27.4142L31.5174 24.0132C31.8843 23.8071 32.3832 23.8071 32.75 24.0132L38.6043 27.4142C38.9858 27.635 39.2207 28.0474 39.2207 28.489V35.2763C39.2207 35.7179 38.9858 36.1303 38.6043 36.3511L32.75 39.7521C32.5592 39.8405 32.3391 39.8846 32.1337 39.8846ZM33.9385 35.2174C31.3709 35.2174 30.8427 34.0396 30.8427 33.0385C30.8427 32.95 30.916 32.8618 31.0188 32.8618H31.7817C31.8697 32.8618 31.9431 32.9206 31.9431 33.009C32.0605 33.7893 32.398 34.1721 33.9533 34.1721C35.1857 34.1721 35.7141 33.8923 35.7141 33.2298C35.7141 32.847 35.5672 32.5674 33.6452 32.3759C32.0458 32.2139 31.0481 31.8606 31.0481 30.5797C31.0481 29.3871 32.0459 28.6804 33.7185 28.6804C35.5966 28.6804 36.521 29.3283 36.6385 30.7415C36.6385 30.7858 36.6238 30.83 36.5944 30.8741C36.565 30.9035 36.521 30.933 36.477 30.933H35.714C35.6406 30.933 35.5672 30.8741 35.5526 30.8005C35.3765 29.9908 34.9217 29.7257 33.7185 29.7257C32.3686 29.7257 32.2072 30.1969 32.2072 30.5502C32.2072 30.9772 32.398 31.1097 34.2173 31.3452C36.0221 31.5809 36.8732 31.9195 36.8732 33.1856C36.8585 34.4813 35.8021 35.2174 33.9385 35.2174Z" fill="#539E43"/>
<path d="M13.9684 13.3391C13.9684 13.0742 13.8216 12.8237 13.5869 12.6912L7.36566 9.09889C7.26283 9.03991 7.14553 9.01048 7.02822 8.9957H6.96944C6.85214 8.9957 6.73471 9.03991 6.632 9.09889L0.410791 12.6912C0.175928 12.8237 0.0292969 13.074 0.0292969 13.3391L0.0440234 22.9974C0.0440234 23.1298 0.117402 23.2623 0.234707 23.3213C0.352139 23.3949 0.498769 23.3949 0.601601 23.3213L4.29911 21.2012C4.53385 21.0687 4.6806 20.8184 4.6806 20.5534V16.0334C4.6806 15.7684 4.82724 15.5181 5.0621 15.3856L6.632 14.4728C6.74943 14.3991 6.88146 14.3696 7.0135 14.3696C7.14553 14.3696 7.27756 14.3991 7.38039 14.4728L8.95029 15.3856C9.18515 15.5181 9.33179 15.7683 9.33179 16.0334V20.5534C9.33179 20.8184 9.47854 21.0687 9.71328 21.2012L13.4108 23.3213C13.4679 23.3574 13.534 23.3765 13.6015 23.3765C13.669 23.3765 13.7352 23.3574 13.7923 23.3213C13.9097 23.2623 13.9831 23.1298 13.9831 22.9974L13.9684 13.3391ZM43.8713 0.0442357C43.754 -0.0147452 43.6072 -0.0147452 43.5044 0.0442357C43.3871 0.117866 43.3137 0.235573 43.3137 0.368057V9.93812C43.3137 10.0264 43.2698 10.1147 43.1817 10.1737C43.0937 10.2177 43.0056 10.2177 42.9176 10.1737L41.3623 9.27557C41.2483 9.21046 41.1193 9.17623 40.9881 9.17623C40.8569 9.17623 40.728 9.21046 40.6139 9.27557L34.3927 12.8827C34.158 13.0152 34.0112 13.2655 34.0112 13.5305V20.73C34.0112 20.9949 34.158 21.2454 34.3927 21.3779L40.6139 24.985C40.728 25.0501 40.8569 25.0843 40.9881 25.0843C41.1193 25.0843 41.2483 25.0501 41.3623 24.985L47.5835 21.3779C47.8183 21.2454 47.965 20.9951 47.965 20.73V2.78271C47.965 2.50296 47.8183 2.25277 47.5835 2.12016L43.8713 0.0442357ZM43.2991 18.3596C43.2991 18.4333 43.2698 18.4921 43.211 18.5216L41.0835 19.7582C41.0538 19.7728 41.0212 19.7804 40.9881 19.7804C40.955 19.7804 40.9224 19.7728 40.8927 19.7582L38.7652 18.5216C38.7065 18.4921 38.6771 18.4185 38.6771 18.3596V15.8861C38.6771 15.8125 38.7065 15.7537 38.7652 15.7242L40.8927 14.4874C40.9224 14.4728 40.955 14.4653 40.9881 14.4653C41.0212 14.4653 41.0538 14.4728 41.0835 14.4874L43.211 15.7242C43.2698 15.7535 43.2991 15.8273 43.2991 15.8861V18.3596ZM64.5744 15.8273C64.8093 15.6948 64.9413 15.4445 64.9413 15.1794V13.4274C64.9413 13.1625 64.7946 12.9121 64.5744 12.7797L58.3973 9.18729C58.2832 9.12218 58.1543 9.08795 58.0231 9.08795C57.8919 9.08795 57.7629 9.12218 57.6489 9.18729L51.4277 12.7943C51.1928 12.9268 51.0462 13.1771 51.0462 13.4421V20.6417C51.0462 20.9067 51.1929 21.157 51.4277 21.2895L57.6048 24.823C57.8397 24.9554 58.1185 24.9554 58.3386 24.823L62.08 22.7325C62.1975 22.6735 62.2709 22.5411 62.2709 22.4086C62.2709 22.2761 62.1975 22.1436 62.08 22.0846L55.8295 18.4775C55.7121 18.4039 55.6387 18.2861 55.6387 18.1537V15.9011C55.6387 15.7686 55.7121 15.6361 55.8295 15.5771L57.7809 14.4581C57.838 14.422 57.9041 14.4029 57.9716 14.4029C58.0391 14.4029 58.1053 14.422 58.1624 14.4581L60.1139 15.5771C60.2314 15.6507 60.3046 15.7684 60.3046 15.9011V17.6678C60.3046 17.8003 60.378 17.9328 60.4954 17.9916C60.5525 18.0277 60.6187 18.0469 60.6862 18.0469C60.7537 18.0469 60.8198 18.0277 60.8769 17.9916L64.5744 15.8273Z" fill="#FAFAFA"/>
<path d="M57.9278 15.4886C57.9496 15.4742 57.9751 15.4666 58.0012 15.4666C58.0273 15.4666 58.0528 15.4742 58.0746 15.4886L59.2631 16.1806C59.307 16.2102 59.3363 16.2542 59.3363 16.3131V17.6972C59.3363 17.756 59.3071 17.8002 59.2631 17.8297L58.0746 18.5216C58.0528 18.536 58.0273 18.5437 58.0012 18.5437C57.9751 18.5437 57.9496 18.536 57.9278 18.5216L56.7394 17.8297C56.6953 17.8002 56.666 17.756 56.666 17.6972V16.3132C56.666 16.2542 56.6952 16.21 56.7394 16.1807L57.9278 15.4886Z" fill="#539E43"/>
<path d="M24.3704 9.21674C24.2564 9.15165 24.1275 9.11743 23.9963 9.11743C23.8651 9.11743 23.7362 9.15165 23.6222 9.21674L17.445 12.7942C17.2102 12.9267 17.0781 13.177 17.0781 13.442V20.6122C17.0781 20.8771 17.2249 21.1274 17.445 21.2599L23.6222 24.8376C23.7362 24.9027 23.8651 24.9369 23.9963 24.9369C24.1275 24.9369 24.2564 24.9027 24.3704 24.8376L30.5477 21.2599C30.7825 21.1274 30.9146 20.8771 30.9146 20.6122V13.4421C30.9146 13.1771 30.7677 12.9268 30.5477 12.7943L24.3704 9.21674Z" fill="url(#paint0_linear_25_2785)"/>
<mask id="mask0_25_2785" style="mask-type:luminance" maskUnits="userSpaceOnUse" x="17" y="9" width="14" height="16">
<path d="M24.3704 9.21674C24.2564 9.15165 24.1275 9.11743 23.9963 9.11743C23.8651 9.11743 23.7362 9.15165 23.6222 9.21674L17.445 12.7942C17.2102 12.9267 17.0781 13.177 17.0781 13.442V20.6122C17.0781 20.8771 17.2249 21.1274 17.445 21.2599L23.6222 24.8376C23.7362 24.9027 23.8651 24.9369 23.9963 24.9369C24.1275 24.9369 24.2564 24.9027 24.3704 24.8376L30.5477 21.2599C30.7825 21.1274 30.9146 20.8771 30.9146 20.6122V13.4421C30.9146 13.1771 30.7677 12.9268 30.5477 12.7943L24.3704 9.21674Z" fill="white"/>
</mask>
<g mask="url(#mask0_25_2785)">
<path d="M30.5631 12.7943L24.3566 9.2167C24.2956 9.18578 24.2317 9.16111 24.1658 9.14307L17.2109 21.0982C17.2686 21.1688 17.3382 21.2286 17.4165 21.2749L23.623 24.8526C23.799 24.9557 24.0045 24.9851 24.1951 24.9261L30.7246 12.9417C30.6805 12.8828 30.6218 12.8384 30.5631 12.7943Z" fill="url(#paint1_linear_25_2785)"/>
</g>
<mask id="mask1_25_2785" style="mask-type:luminance" maskUnits="userSpaceOnUse" x="17" y="9" width="14" height="16">
<path d="M24.3704 9.21674C24.2564 9.15165 24.1275 9.11743 23.9963 9.11743C23.8651 9.11743 23.7362 9.15165 23.6222 9.21674L17.445 12.7942C17.2102 12.9267 17.0781 13.177 17.0781 13.442V20.6122C17.0781 20.8771 17.2249 21.1274 17.445 21.2599L23.6222 24.8376C23.7362 24.9027 23.8651 24.9369 23.9963 24.9369C24.1275 24.9369 24.2564 24.9027 24.3704 24.8376L30.5477 21.2599C30.7825 21.1274 30.9146 20.8771 30.9146 20.6122V13.4421C30.9146 13.1771 30.7677 12.9268 30.5477 12.7943L24.3704 9.21674Z" fill="white"/>
</mask>
<g mask="url(#mask1_25_2785)">
<path fill-rule="evenodd" clip-rule="evenodd" d="M30.5775 21.2601C30.7536 21.1571 30.8856 20.9804 30.9444 20.789L24.136 9.12839C23.9599 9.09896 23.7691 9.11361 23.6079 9.21667L17.4453 12.7797L24.0919 24.9409C24.1886 24.9251 24.2825 24.8954 24.3707 24.8526L30.5775 21.2601Z" fill="url(#paint2_linear_25_2785)"/>
<path fill-rule="evenodd" clip-rule="evenodd" d="M30.5761 21.26L24.3843 24.8377C24.2968 24.8824 24.2026 24.9122 24.1055 24.926L24.2229 25.1469L31.0897 21.1571V21.0687L30.9136 20.7742C30.8843 20.9803 30.7522 21.157 30.5761 21.26Z" fill="url(#paint3_linear_25_2785)"/>
<path fill-rule="evenodd" clip-rule="evenodd" d="M30.5761 21.26L24.3843 24.8377C24.2968 24.8824 24.2026 24.9122 24.1055 24.926L24.2229 25.1469L31.0897 21.1571V21.0687L30.9136 20.7742C30.8843 20.9803 30.7522 21.157 30.5761 21.26Z" fill="url(#paint4_linear_25_2785)"/>
</g>
</g>
<defs>
<linearGradient id="paint0_linear_25_2785" x1="960.561" y1="285.753" x2="280.187" y2="1351.18" gradientUnits="userSpaceOnUse">
<stop stop-color="#41873F"/>
<stop offset="0.3288" stop-color="#418B3D"/>
<stop offset="0.6352" stop-color="#419637"/>
<stop offset="0.9319" stop-color="#3FA92D"/>
<stop offset="1" stop-color="#3FAE2A"/>
</linearGradient>
<linearGradient id="paint1_linear_25_2785" x1="602.041" y1="881.538" x2="2300.39" y2="-38.0268" gradientUnits="userSpaceOnUse">
<stop offset="0.1376" stop-color="#41873F"/>
<stop offset="0.4032" stop-color="#54A044"/>
<stop offset="0.7136" stop-color="#66B848"/>
<stop offset="0.9081" stop-color="#6CC04A"/>
</linearGradient>
<linearGradient id="paint2_linear_25_2785" x1="-41.802" y1="800.362" x2="1387.59" y2="800.362" gradientUnits="userSpaceOnUse">
<stop offset="0.09192" stop-color="#6CC04A"/>
<stop offset="0.2864" stop-color="#66B848"/>
<stop offset="0.5968" stop-color="#54A044"/>
<stop offset="0.8624" stop-color="#41873F"/>
</linearGradient>
<linearGradient id="paint3_linear_25_2785" x1="-701.281" y1="240.614" x2="728.092" y2="240.614" gradientUnits="userSpaceOnUse">
<stop offset="0.09192" stop-color="#6CC04A"/>
<stop offset="0.2864" stop-color="#66B848"/>
<stop offset="0.5968" stop-color="#54A044"/>
<stop offset="0.8624" stop-color="#41873F"/>
</linearGradient>
<linearGradient id="paint4_linear_25_2785" x1="936.333" y1="-902.175" x2="571.817" y2="1001.35" gradientUnits="userSpaceOnUse">
<stop stop-color="#41873F"/>
<stop offset="0.3288" stop-color="#418B3D"/>
<stop offset="0.6352" stop-color="#419637"/>
<stop offset="0.9319" stop-color="#3FA92D"/>
<stop offset="1" stop-color="#3FAE2A"/>
</linearGradient>
<clipPath id="clip0_25_2785">
<rect width="65" height="40" fill="white"/>
</clipPath>
</defs>
</svg>
