<svg width="40" height="40" viewBox="0 0 40 40" fill="none" xmlns="http://www.w3.org/2000/svg">
<path d="M20.0007 3.33325C10.8173 3.33325 3.33398 10.8166 3.33398 19.9999C3.33398 29.1833 10.8173 36.6666 20.0007 36.6666C29.184 36.6666 36.6673 29.1833 36.6673 19.9999C36.6673 10.8166 29.184 3.33325 20.0007 3.33325ZM5.01732 19.9999C5.01732 17.8333 5.48398 15.7666 6.31732 13.8999L13.4673 33.4833C8.46732 31.0499 5.01732 25.9333 5.01732 19.9999ZM20.0007 34.9833C18.534 34.9833 17.1173 34.7666 15.7673 34.3666L20.2673 21.2999L24.8673 33.9166C24.9007 33.9833 24.934 34.0666 24.9673 34.1166C23.4173 34.6833 21.7507 34.9833 20.0007 34.9833ZM22.0673 12.9666C22.9673 12.9166 23.784 12.8166 23.784 12.8166C24.584 12.7166 24.5007 11.5333 23.684 11.5833C23.684 11.5833 21.2507 11.7666 19.684 11.7666C18.2173 11.7666 15.734 11.5833 15.734 11.5833C14.934 11.5499 14.834 12.7833 15.6507 12.8333C15.6507 12.8333 16.4173 12.9333 17.2173 12.9833L19.5506 19.3833L16.2673 29.2166L10.8173 12.9666C11.7173 12.9333 12.534 12.8333 12.534 12.8333C13.334 12.7333 13.2507 11.5499 12.434 11.5999C12.434 11.5999 10.0007 11.7833 8.43398 11.7833C8.15065 11.7833 7.81732 11.7833 7.46732 11.7666C10.1673 7.69992 14.7673 5.01659 20.0007 5.01659C23.9007 5.01659 27.4506 6.49992 30.1173 8.94992C30.0506 8.94992 29.984 8.93325 29.9173 8.93325C28.4507 8.93325 27.4007 10.2166 27.4007 11.5999C27.4007 12.8333 28.1173 13.8833 28.8673 15.1166C29.434 16.1166 30.1006 17.3999 30.1006 19.2499C30.1006 20.5333 29.6006 22.0166 28.9673 24.0999L27.4673 29.0999L22.0673 12.9666ZM33.1506 12.8166C35.0218 16.2428 35.4818 20.2641 34.4328 24.0244C33.3838 27.7847 30.9085 30.9871 27.534 32.9499L32.1173 19.7166C32.9673 17.5833 33.2507 15.8666 33.2507 14.3499C33.2507 13.7999 33.2173 13.2833 33.1506 12.8166Z" fill="white"/>
</svg>
