<svg width="40" height="40" viewBox="0 0 40 40" fill="none" xmlns="http://www.w3.org/2000/svg">
<g clip-path="url(#clip0_25_2707)">
<path d="M36.3438 27.8437H3.65625C1.625 27.8437 0 26.2188 0 24.1875V11.6875C0 9.6875 1.625 8.0625 3.65625 8.0625H36.375C38.375 8.0625 40.0313 9.6875 40.0313 11.7188V24.2188C40 26.2188 38.375 27.8437 36.3438 27.8437Z" fill="#7F54B3"/>
<path d="M4.3125 23.9688C4.3125 23.9688 5.1875 27.6563 6.96875 25.1875C8.75 22.7188 10.4688 18.8438 10.4688 18.8438C10.4688 18.8438 10.5938 17.875 11.0938 20C11.5938 22.125 13.75 25 13.75 25C13.75 25 15.7188 27.4688 16.5313 24.875C16.2188 21.4375 17.4063 15.1875 18.625 12.1875C19.125 9.53126 16.3438 10.2813 16.0938 10.9063C15.8438 11.5313 14.125 15.5313 14 19.7188C14 19.7188 12.5313 15.7188 12.4063 14.2813C12.2813 12.8125 10.75 12.4375 9.875 13.8438C9 15.25 6.34375 20.6875 6.34375 20.6875L4.625 11.8125C4.625 11.8125 2.90625 9.53126 1.90625 12.3125C1.90625 12.3125 3.6875 23.2188 4.3125 23.9688ZM27.1875 14.2813C24.5313 9.84376 20.5938 13.2188 20.5938 13.2188C20.5938 13.2188 17.5938 16.6875 18.9375 21.4063C21.0938 26.0625 24.125 24 24.9375 23.625C25.7813 23.2188 29.3438 19.1563 27.1875 14.2813ZM25.1563 18.1875C25.1563 20.0313 23.625 21.75 22.375 21.375C21.6875 20.9688 21.25 19.875 21.25 18C21.875 14.9688 23.25 14.5625 23.9688 14.625C25.3125 15.3438 25.25 16.9375 25.1563 18.1875ZM37.1563 14.2813C34.5 9.84376 30.5625 13.2188 30.5625 13.2188C30.5625 13.2188 27.5625 16.6875 28.9063 21.4063C31.0625 26.0625 34.0938 24 34.9063 23.625C35.7188 23.2188 39.3125 19.1563 37.1563 14.2813ZM35.125 18.1875C35.125 20.0313 33.5938 21.75 32.3438 21.375C31.6563 20.9688 31.2188 19.875 31.2188 18C31.8438 14.9688 33.2188 14.5625 33.9375 14.625C35.25 15.3438 35.1875 16.9375 35.125 18.1875Z" fill="white"/>
<path d="M19.1562 27.8437L26.125 31.9375L24.6563 27.8437L20.6562 26.7188L19.1562 27.8437Z" fill="#7F54B3"/>
</g>
<defs>
<clipPath id="clip0_25_2707">
<rect width="40" height="40" fill="white"/>
</clipPath>
</defs>
</svg>
