<svg width="40" height="40" viewBox="0 0 40 40" fill="none" xmlns="http://www.w3.org/2000/svg">
<g clip-path="url(#clip0_25_2713)">
<path d="M20.7375 31.525C20.6937 30.4687 21.2313 29.4812 22.1375 28.9375C23.0438 28.4 24.1688 28.4062 25.075 28.95C25.975 29.4937 26.5062 30.4875 26.4562 31.5437C26.5 32.6 25.9625 33.5874 25.0562 34.1312C24.15 34.6687 23.025 34.6625 22.1187 34.1187C21.2187 33.575 20.6875 32.5812 20.7375 31.525ZM10.5875 28.6812C9.5375 28.6375 8.54375 29.1687 8.00625 30.075C7.46875 30.9812 7.475 32.1062 8.01875 33.0062C8.5625 33.9124 9.55625 34.4375 10.6062 34.3875C11.6562 34.4312 12.65 33.9 13.1875 32.9937C13.725 32.0875 13.7188 30.9625 13.175 30.0625C12.6313 29.1562 11.6375 28.6312 10.5875 28.6812ZM28.8188 11.8062C9.93125 11.8062 5.11875 11.0062 0 5.6062C2.15 8.83745 3.33125 14.9125 23.3188 14.6187C44.15 14.3062 31.4437 19.9999 27.7437 26.4249C39.4125 16.0062 47.7063 11.8062 28.8188 11.8062Z" fill="#05B46E"/>
</g>
<defs>
<clipPath id="clip0_25_2713">
<rect width="40" height="40" fill="white"/>
</clipPath>
</defs>
</svg>
