<svg width="40" height="40" viewBox="0 0 40 40" fill="none" xmlns="http://www.w3.org/2000/svg">
<path d="M26.6667 38.3332V6.6665M26.6667 38.3332L5 34.1665L6.66667 12.4998L26.6667 6.6665M26.6667 38.3332L35 35.8332C35 31.3948 34.6667 26.9632 34.0017 22.5748L31.8833 8.57984H29.1667L26.6667 6.6665" stroke="#61DAFB" stroke-width="2.5" stroke-linecap="round" stroke-linejoin="round"/>
<path d="M21.6692 8.1249C21.6809 4.76324 20.3976 2.1049 18.3359 1.7149C15.7342 1.22324 12.8776 4.53324 11.9559 9.10824C11.8248 9.7649 11.7392 10.4066 11.6992 11.0332" stroke="#61DAFB" stroke-width="2.5" stroke-linecap="round" stroke-linejoin="round"/>
<path d="M24.7778 7.21662C24.2878 5.24828 23.2545 3.85495 21.8478 3.57995C19.5428 3.12995 17.0311 5.84495 15.9245 9.79995M21.3161 15.7066C19.6495 15.0066 15.3161 13.7433 14.1728 17.11C13.5561 18.9266 14.6628 20.8633 17.0278 22.7216C20.3395 25.3216 19.7778 27.54 19.1711 28.3333C17.0295 31.14 12.7428 29.5033 11.3145 28.3333" stroke="#61DAFB" stroke-width="2.5" stroke-linecap="round" stroke-linejoin="round"/>
</svg>
