<svg width="59" height="40" viewBox="0 0 59 40" fill="none" xmlns="http://www.w3.org/2000/svg">
<path d="M17.4567 26.3952L19.2401 32.1817C19.6408 33.4955 19.8079 34.4126 19.741 34.9354C20.7163 32.3231 21.3979 29.4764 21.7856 26.3952H23.93C23.0078 31.4114 21.7919 35.0565 20.2822 37.3304C19.106 39.0827 17.8175 39.9589 16.4144 39.9589C16.0403 39.9589 15.5791 39.8458 15.0319 39.6214V38.4123C15.2993 38.4515 15.613 38.4724 15.9738 38.4724C16.6282 38.4723 17.156 38.2911 17.5572 37.9289C18.0378 37.4878 18.2784 36.992 18.2784 36.4424C18.2784 36.0672 18.0908 35.2971 17.7172 34.1321L15.2324 26.3952H17.4567ZM3.80779 22.8386L7.07427 32.8049H7.09444L10.381 22.8386H13.0661C13.6541 27.7812 14.0014 32.3035 14.108 36.4026H11.8441C11.7644 32.5709 11.544 28.9674 11.183 25.5923H11.1633L7.71599 36.4026H5.99198L2.5655 25.5923H2.54533C2.29127 28.8337 2.13096 32.4372 2.06441 36.4026H0C0.13341 31.5797 0.467278 27.0588 1.0016 22.8386H3.80779Z" fill="#00758F"/>
<path d="M40.4013 22.6373C43.915 22.6373 45.6719 24.8821 45.6719 29.3696C45.6719 31.8081 45.1435 33.65 44.0878 34.8944C43.8976 35.1218 43.6873 35.3182 43.4658 35.5002L45.9524 36.7297L45.95 36.7296L45.0671 38.2542L41.8289 36.3648C41.2921 36.5237 40.7018 36.6032 40.058 36.6032C38.3328 36.6032 37.0441 36.1004 36.192 35.096C35.2568 33.9849 34.7894 32.2358 34.7894 29.8516C34.7894 27.4269 35.3168 25.5919 36.3729 24.346C37.3347 23.2063 38.6778 22.6373 40.4013 22.6373ZM29.6414 22.6569C30.8972 22.6569 32.0391 22.993 33.0677 23.6627L32.5453 24.8268C31.6652 24.4527 30.7974 24.2648 29.9417 24.2648C29.2474 24.2648 28.7124 24.4319 28.3394 24.7682C27.9644 25.1015 27.7324 25.5304 27.7324 26.0533C27.7324 26.8567 28.3048 27.5534 29.3617 28.1421C29.7079 28.3313 30.0529 28.5228 30.3967 28.7164L30.4756 28.7608L30.5151 28.783L30.5941 28.8274L30.6335 28.8496L30.7124 28.8941C31.5124 29.3451 32.2652 29.7755 32.2652 29.7755C33.3219 30.5257 33.8486 31.3255 33.8486 32.6427C33.8486 33.7931 33.4271 34.7374 32.5868 35.4763C31.7458 36.2119 30.6161 36.5807 29.2013 36.5807C27.8781 36.5807 26.5957 36.1562 25.3535 35.3142L25.9346 34.1491C27.0036 34.6849 27.9709 34.9525 28.8396 34.9525C29.6543 34.9525 30.292 34.7706 30.7533 34.4114C31.2137 34.0496 31.4896 33.5449 31.4896 32.9051C31.4896 32.0997 30.9293 31.4112 29.9016 30.8337C29.5799 30.6559 29.2592 30.4765 28.9394 30.2953L28.8607 30.2507C28.716 30.169 28.5704 30.0863 28.4277 30.0052L28.3503 29.9612C27.6563 29.5665 27.0563 29.2216 27.0563 29.2216C26.0289 28.4701 25.5137 27.6638 25.5137 26.3352C25.5137 25.2364 25.8979 24.3483 26.6651 23.6726C27.4343 22.9955 28.4264 22.6569 29.6414 22.6569ZM49.8013 22.8385V34.7339H54.0693V36.4025H47.6367V22.8386L49.8013 22.8385ZM56.4409 34.7391V35.021H55.9716V36.401H55.6129V35.021H55.1254V34.7391H56.4409ZM57.3073 34.7391L57.7579 35.8719L58.1717 34.7391H58.6803V36.401H58.3422V35.1362L57.8711 36.401H57.6273L57.1555 35.1362H57.1374V36.401H56.8175V34.7391H57.3073ZM40.1803 24.3054C38.1097 24.3054 37.0739 26.0143 37.0739 29.4298C37.0739 31.3862 37.3484 32.8049 37.8963 33.6891C38.4038 34.5075 39.1987 34.9158 40.281 34.9158C42.3516 34.9158 43.3873 33.1937 43.3873 29.7509C43.3873 27.8218 43.1128 26.4153 42.5656 25.5306C42.0575 24.7141 41.263 24.3054 40.1805 24.3054" fill="#F29111"/>
<path d="M34.7536 0.840466C35.4404 -0.847327 37.8422 0.430839 38.7742 1.02041C39.0026 1.16792 39.2646 1.47955 39.5265 1.59474C39.9351 1.61078 40.3434 1.64276 40.7526 1.65984C41.5203 1.84024 42.2394 1.98763 42.8443 2.33216C45.6556 3.98774 47.4856 5.67485 49.1698 8.46156C49.5297 9.05181 49.7095 9.69055 50.0035 10.3293C50.4116 11.2814 50.87 12.2808 51.3436 13.1811C51.5556 13.6079 51.7196 14.0825 52.0141 14.443C52.129 14.6078 52.4556 14.6564 52.6508 14.7549C53.1904 15.0342 53.8441 15.2462 54.3516 15.574C55.2994 16.1649 56.2157 16.8691 57.0487 17.59C57.3592 17.8683 57.5708 18.2622 57.8666 18.5566V18.7051C57.604 18.7857 57.3423 18.8682 57.0804 18.9343C56.5084 19.0813 56.0017 19.048 55.4467 19.1951C55.1038 19.2946 54.678 19.4258 54.3184 19.4592L54.3516 19.4926C54.5632 20.0972 55.7079 20.5889 56.2315 20.9505C56.8674 21.4094 57.4566 21.966 57.9309 22.6052C58.0947 22.7683 58.2584 22.9167 58.4214 23.0793C58.5353 23.2441 58.5674 23.4573 58.6827 23.6043V23.654C58.5551 23.6089 58.4632 23.523 58.3763 23.4331L58.3243 23.3789C58.2724 23.3251 58.22 23.2721 58.1603 23.2284C57.7995 22.982 57.4412 22.6872 57.0804 22.4581C56.4602 22.0645 55.7407 21.8361 55.1038 21.441C54.7437 21.2117 54.4004 20.9505 54.0572 20.688C53.746 20.458 53.4033 20.0163 53.2078 19.6885C53.0926 19.5074 53.0768 19.2946 52.9452 19.1636C52.9687 18.9448 53.1691 18.8798 53.3714 18.8264L53.418 18.8141C53.4878 18.796 53.5561 18.7779 53.6157 18.7539C54.4654 18.3931 55.4785 18.2622 56.7867 18.295C56.7374 17.9665 55.92 17.5573 55.659 17.3606C55.1352 16.983 54.5806 16.5891 54.025 16.2455C53.7305 16.0656 53.2231 15.9342 52.8969 15.7872C52.4556 15.6068 51.4746 15.4265 51.23 15.0829C50.8145 14.5412 50.5161 13.8951 50.2263 13.2425L50.1475 13.0644L50.0684 12.8864C49.7259 12.1005 49.3005 11.2812 48.9572 10.4765C48.7777 10.0839 48.6953 9.73938 48.4988 9.36287C47.306 7.0525 45.5406 5.11817 43.4002 3.75783C42.6968 3.31519 41.9125 2.90557 41.0467 2.62717C40.5561 2.47898 39.9672 2.56092 39.4444 2.44723H39.1004C38.8067 2.36448 38.5616 2.05319 38.3325 1.88906C37.8265 1.54545 37.3196 1.31474 36.7145 1.06958C36.5024 0.97124 35.8969 0.742243 35.6856 0.922529C35.5547 0.955423 35.4883 1.00482 35.4561 1.13617C35.3259 1.33216 35.4404 1.6274 35.5215 1.80815C35.767 2.33193 36.1099 2.64322 36.4212 3.08585C36.6981 3.4784 37.042 3.92104 37.2384 4.34786C37.662 5.26534 37.8592 6.28184 38.2518 7.19921C38.3973 7.54419 38.6276 7.93674 38.8395 8.24792C39.0191 8.49491 39.3457 8.67348 39.4444 8.98614C39.6414 9.31393 39.1497 10.3955 39.0359 10.739C38.6101 12.0831 38.6926 13.9514 39.1829 15.1165L39.209 15.1779L39.2352 15.2401C39.4142 15.6668 39.6058 16.1263 40.0818 16.2456C40.1146 16.2131 40.0818 16.2302 40.1468 16.2131C40.262 15.3113 40.2944 14.4429 40.6053 13.7373C40.7849 13.2962 41.1435 12.9843 41.3893 12.6242C41.5532 12.7223 41.5532 13.0181 41.6509 13.2139C41.8636 13.7216 42.092 14.2783 42.3542 14.7875C42.8925 15.8362 43.4981 16.853 44.1843 17.7703C44.4141 18.098 44.7402 18.4587 45.0342 18.7538C45.1653 18.8681 45.312 18.9341 45.4104 19.0812H45.4425V19.1307C44.9522 18.9499 44.6414 18.4426 44.2503 18.1465C43.514 17.5898 42.6323 16.7538 42.1248 15.9516C41.9125 15.4911 41.6831 15.0497 41.4543 14.5915V14.5584C41.3565 14.6893 41.3893 14.8193 41.3404 15.0173C41.1281 15.8362 41.2916 16.7704 40.5561 17.065C39.7224 17.41 39.1005 16.5083 38.8395 16.0986C38.0056 14.7386 37.7772 12.4442 38.3653 10.5922C38.4959 10.1822 38.5137 9.69055 38.7418 9.36322C38.6925 9.06729 38.4644 8.98637 38.3325 8.80505C38.1037 8.49514 37.9078 8.13411 37.7287 7.78992C37.3846 7.1176 37.1398 6.31428 36.8786 5.59325C36.7638 5.2988 36.7309 5.00322 36.6164 4.72448C36.4211 4.29903 36.0611 3.87221 35.7834 3.49582C35.4073 2.95485 34.3121 1.90637 34.7536 0.840466ZM40.1142 4.05135C40.1579 4.09514 40.2106 4.13342 40.2652 4.17113L40.331 4.21628C40.4187 4.27703 40.5036 4.34098 40.5556 4.42809C40.6381 4.54339 40.6535 4.6572 40.7523 4.77273C40.7523 5.16666 40.6381 5.42855 40.4077 5.59176C40.4077 5.59176 40.392 5.60895 40.3758 5.62499C40.2451 5.36241 40.1306 5.10121 39.9991 4.83886C39.837 4.60986 39.6079 4.4282 39.4759 4.16654H39.4441V4.13365C39.6414 4.08494 39.837 4.05135 40.1142 4.05135Z" fill="#00758F"/>
</svg>
