<svg width="152" height="40" viewBox="0 0 152 40" fill="none" xmlns="http://www.w3.org/2000/svg">
<g clip-path="url(#clip0_25_2729)">
<path d="M11.7827 4.09187C10.2389 2.26373 8.90921 0.407133 8.63787 0.0213557C8.63141 0.0146061 8.62365 0.00923362 8.61505 0.00556305C8.60645 0.00189248 8.5972 0 8.58785 0C8.57849 0 8.56924 0.00189248 8.56064 0.00556305C8.55204 0.00923362 8.54428 0.0146061 8.53782 0.0213557C8.26618 0.407133 6.93678 2.26373 5.39303 4.09187C-7.85799 20.9588 7.48006 32.3414 7.48006 32.3414L7.6086 32.4273C7.7229 34.1837 8.00879 36.7117 8.00879 36.7117H9.15235C9.15235 36.7117 9.43824 34.1979 9.55254 32.4273L9.68138 32.3271C9.69563 32.3414 25.0334 20.9588 11.7827 4.09187ZM8.58057 32.0845C8.58057 32.0845 7.89449 31.4987 7.70865 31.1991V31.1704L8.53782 12.8039C8.53782 12.7467 8.62362 12.7467 8.62362 12.8039L9.45249 31.1704V31.1991C9.26665 31.4987 8.58057 32.0845 8.58057 32.0845Z" fill="#01EC64"/>
<path d="M37.2854 28.3365L30.8937 12.7564L30.8797 12.7134H25.9071V13.7605H26.7092C26.953 13.7605 27.1821 13.8613 27.3543 14.0331C27.5262 14.2053 27.6123 14.4349 27.6123 14.6791L27.4689 30.3591C27.4689 30.8471 27.0678 31.2485 26.5804 31.2631L25.7637 31.2773V32.3102H30.6075V31.2773L30.1058 31.2631C29.6186 31.2485 29.2172 30.8471 29.2172 30.3594V15.5822L36.1819 32.3099C36.2823 32.5537 36.5114 32.7117 36.7697 32.7117C37.0274 32.7117 37.2566 32.5537 37.3569 32.3099L44.1643 15.9552L44.2646 30.3591C44.2646 30.861 43.8633 31.2628 43.3615 31.277H42.8456V32.3099H48.5206V31.277H47.7467C47.2598 31.277 46.8581 30.861 46.8442 30.3733L46.8008 14.6927C46.8006 14.4545 46.8932 14.2256 47.059 14.0543C47.2248 13.883 47.4509 13.7828 47.6894 13.7748L48.5206 13.7602V12.7131H43.6768L37.2854 28.3365ZM81.8502 31.0044C81.6923 30.8465 81.6059 30.6311 81.6059 30.3721V22.6696C81.6059 21.2038 81.1751 20.0539 80.313 19.2349C79.4651 18.4157 78.2871 17.9991 76.8217 17.9991C74.7668 17.9991 73.1434 18.8325 72.0082 20.4708C71.9939 20.4995 71.9509 20.514 71.9078 20.514C71.8648 20.514 71.836 20.485 71.836 20.442L71.3043 18.3869H70.4134L68.1289 19.6948V20.4133H68.7179C68.991 20.4133 69.2208 20.485 69.3791 20.629C69.537 20.7727 69.6231 20.9881 69.6231 21.2897V30.3579C69.6231 30.6165 69.537 30.8322 69.3791 30.9905C69.2208 31.1484 69.0053 31.2346 68.7467 31.2346H68.172V32.2835H73.4305V31.2346H72.8561C72.5972 31.2346 72.3817 31.1484 72.2237 30.9905C72.0658 30.8322 71.9794 30.6165 71.9794 30.3579V24.3508C71.9794 23.5893 72.1519 22.8275 72.468 22.0799C72.7985 21.3472 73.2868 20.7291 73.9334 20.2548C74.58 19.7804 75.356 19.5508 76.2467 19.5508C77.2525 19.5508 78.014 19.8669 78.4881 20.4992C78.9622 21.1315 79.2065 21.9508 79.2065 22.928V30.3434C79.2065 30.602 79.1204 30.8174 78.9622 30.9757C78.804 31.1339 78.5887 31.2198 78.3298 31.2198H77.7554V32.269H83.0139V31.2201H82.4395C82.224 31.2488 82.0227 31.1626 81.8502 31.0044ZM129.894 13.8865C128.441 13.114 126.816 12.7131 125.063 12.7131H118.223V13.7576H118.893C119.149 13.7576 119.377 13.8577 119.605 14.0865C119.819 14.3013 119.933 14.5445 119.933 14.802V30.1946C119.933 30.4524 119.819 30.6954 119.605 30.9102C119.392 31.1247 119.149 31.2391 118.893 31.2391H118.223V32.2835H125.063C126.816 32.2835 128.441 31.8829 129.894 31.1102C131.348 30.3374 132.531 29.1931 133.386 27.7342C134.241 26.2752 134.683 24.5155 134.683 22.5125C134.683 20.5099 134.241 18.7644 133.386 17.2912C132.517 15.8035 131.348 14.6731 129.894 13.8865ZM131.933 22.4841C131.933 24.3152 131.605 25.8601 130.963 27.1048C130.322 28.3493 129.467 29.2791 128.413 29.8802C127.358 30.4808 126.189 30.7813 124.935 30.7813H123.553C123.297 30.7813 123.069 30.6811 122.841 30.4524C122.627 30.2376 122.513 29.9946 122.513 29.7371V15.2168C122.513 14.9591 122.613 14.7306 122.841 14.5016C123.054 14.2871 123.297 14.1727 123.553 14.1727H124.935C126.189 14.1727 127.358 14.4728 128.413 15.0737C129.467 15.6746 130.322 16.6044 130.963 17.8491C131.605 19.1078 131.933 20.6672 131.933 22.4841ZM150.852 23.5285C150.219 22.7988 148.998 22.1837 147.563 21.8545C149.545 20.8675 150.564 19.4799 150.564 17.6915C150.564 16.7191 150.307 15.8462 149.789 15.1025C149.272 14.3588 148.539 13.7576 147.606 13.3428C146.671 12.9279 145.579 12.7134 144.344 12.7134H136.601V13.7576H137.219C137.477 13.7576 137.707 13.8577 137.937 14.0865C138.153 14.3013 138.267 14.5445 138.267 14.802V30.1946C138.267 30.4524 138.153 30.6954 137.937 30.9102C137.721 31.1247 137.477 31.2391 137.219 31.2391H136.543V32.2835H144.948C146.226 32.2835 147.418 32.069 148.496 31.6397C149.574 31.2106 150.435 30.581 151.054 29.7514C151.685 28.9217 152.001 27.9057 152.001 26.7327C151.987 25.474 151.613 24.4008 150.852 23.5285ZM141.212 30.4666C140.997 30.2521 140.882 30.0088 140.882 29.7514V22.8414H144.876C146.283 22.8414 147.36 23.199 148.108 23.914C148.855 24.6295 149.228 25.5595 149.228 26.7039C149.228 27.3905 149.055 28.0631 148.74 28.6782C148.41 29.3075 147.92 29.8082 147.26 30.1946C146.613 30.5807 145.809 30.7813 144.876 30.7813H141.93C141.672 30.7813 141.442 30.6808 141.212 30.4663M140.896 21.3679V15.2311C140.896 14.9736 140.996 14.7448 141.226 14.5158C141.442 14.3013 141.686 14.1869 141.945 14.1869H143.841C145.205 14.1869 146.211 14.5303 146.844 15.1884C147.475 15.8607 147.791 16.7191 147.791 17.7774C147.791 18.8648 147.489 19.7374 146.901 20.3955C146.311 21.0391 145.421 21.3682 144.243 21.3682L140.896 21.3679ZM61.831 18.9111C60.7332 18.3125 59.5071 17.9985 58.1812 17.9985C56.8904 17.9985 55.6807 18.2826 54.6175 18.8637L54.5317 18.9111C53.4339 19.5099 52.5644 20.3795 51.9228 21.4773C51.2816 22.5751 50.9535 23.8583 50.9535 25.2838C50.9535 26.7096 51.2813 27.9928 51.9228 29.0906C52.5644 30.1884 53.4339 31.058 54.5317 31.6565C55.6296 32.2551 56.8557 32.5691 58.1812 32.5691C59.4723 32.5691 60.6821 32.2853 61.7449 31.7045L61.831 31.6568C62.9286 31.058 63.7984 30.1884 64.44 29.0906C65.0812 27.9928 65.4092 26.7096 65.4092 25.2838C65.4092 23.8583 65.0812 22.5751 64.44 21.4773C63.7987 20.3795 62.9289 19.5096 61.831 18.9111ZM62.8858 25.2841C62.8858 27.0379 62.4583 28.4634 61.6027 29.49C60.7617 30.5164 59.6071 31.0438 58.1812 31.0438C56.7812 31.0438 55.6424 30.5351 54.8052 29.5445L54.76 29.49C53.9045 28.4634 53.4767 27.0379 53.4767 25.2841C53.4767 23.5626 53.8893 22.157 54.7137 21.1348L54.76 21.0785C55.6008 20.0521 56.7559 19.5244 58.1812 19.5244C59.6071 19.5244 60.7617 20.0518 61.6027 21.0785C62.4583 22.1051 62.8858 23.5306 62.8858 25.2841ZM112.354 18.9114C111.257 18.3128 110.031 17.9988 108.705 17.9988C107.414 17.9988 106.204 18.2829 105.141 18.8639L105.055 18.9114C103.958 19.5102 103.088 20.3798 102.446 21.4776C101.805 22.5754 101.477 23.8586 101.477 25.2841C101.477 26.7099 101.805 27.9931 102.446 29.0909C103.088 30.1887 103.958 31.0583 105.055 31.6568C106.153 32.2557 107.379 32.5694 108.705 32.5694C109.996 32.5694 111.206 32.2856 112.269 31.7048L112.355 31.6571C113.452 31.0583 114.322 30.1887 114.963 29.0909C115.605 27.9931 115.933 26.7099 115.933 25.2841C115.933 23.8586 115.605 22.5754 114.963 21.4776C114.322 20.3798 113.438 19.5099 112.354 18.9114ZM113.409 25.2844C113.409 27.0382 112.982 28.4637 112.126 29.4903C111.285 30.5167 110.131 31.0441 108.705 31.0441C107.305 31.0441 106.166 30.5354 105.329 29.5448L105.283 29.4903C104.428 28.4637 104 27.0382 104 25.2844C104 23.5487 104.413 22.1567 105.237 21.1351L105.283 21.0788C106.124 20.0524 107.279 19.5247 108.705 19.5247C110.131 19.5247 111.285 20.0521 112.126 21.0788C112.968 22.1054 113.409 23.5309 113.409 25.2844ZM91.9793 17.9994C90.8306 17.9994 89.7824 18.2428 88.8348 18.7297C87.8871 19.2165 87.1405 19.8755 86.6094 20.7205C86.081 21.5405 85.8018 22.4956 85.8055 23.4705C85.8055 24.3585 86.0064 25.1748 86.4229 25.9054C86.8246 26.6071 87.3703 27.1943 88.0596 27.6811L86.0064 30.4598C85.7482 30.8035 85.7194 31.2619 85.9058 31.6343C86.1068 32.021 86.4803 32.25 86.911 32.25H87.4997C86.9493 32.6207 86.5043 33.0571 86.1902 33.5715L86.1498 33.6394C85.7767 34.2551 85.5899 34.8998 85.5899 35.5585C85.5899 36.7682 86.1163 37.7709 87.155 38.5253L87.2123 38.5662C88.2752 39.3253 89.7681 39.712 91.6488 39.712C92.9554 39.712 94.2046 39.4971 95.339 39.0817C96.4547 38.6785 97.367 38.0856 98.0501 37.317L98.1094 37.2488C98.813 36.4465 99.1722 35.4725 99.1722 34.3555C99.1722 33.181 98.7415 32.3502 97.7366 31.5484C96.875 30.8752 95.5254 30.5173 93.8454 30.5173H88.1027C88.0943 30.5165 88.0863 30.5132 88.0798 30.5078L88.0739 30.5028L88.0712 30.4968C88.0682 30.4877 88.0635 30.4702 88.0739 30.4598L89.5672 28.4548C89.9208 28.6192 90.2916 28.744 90.6727 28.8269C91.0171 28.8986 91.4048 28.9274 91.8356 28.9274C93.0415 28.9274 94.1328 28.6838 95.0804 28.197C96.028 27.7099 96.7889 27.0512 97.3346 26.2059C97.88 25.3754 98.1528 24.4444 98.1528 23.4562C98.1528 22.3964 97.6362 20.4628 96.229 19.4746C96.229 19.4657 96.2341 19.4625 96.2382 19.461L96.2433 19.4601L99.3302 19.8038V18.386H94.3911C93.6159 18.1425 92.8117 17.9994 91.9793 17.9994ZM93.702 26.9653C93.1564 27.2515 92.568 27.4091 91.9793 27.4091C91.0174 27.4091 90.1701 27.0654 89.4523 26.3922C88.7344 25.7191 88.3755 24.7309 88.3755 23.4705C88.3755 22.21 88.7344 21.2216 89.4523 20.5487C90.1701 19.8758 91.0171 19.5318 91.9793 19.5318C92.557 19.5318 93.1086 19.6634 93.6337 19.9389L93.702 19.9757C94.2477 20.2622 94.6927 20.7063 95.0516 21.2936C95.396 21.8808 95.583 22.6112 95.583 23.4705C95.583 24.3442 95.4105 25.0746 95.0516 25.6474C94.7072 26.2346 94.2477 26.6788 93.702 26.9653ZM89.8112 32.2355H93.702C94.7788 32.2355 95.4681 32.4503 95.9274 32.9087C96.3867 33.3671 96.6164 33.9828 96.6164 34.6989C96.6164 35.7445 96.2002 36.6041 95.3675 37.2482C94.5348 37.893 93.415 38.2222 92.0366 38.2222C90.8304 38.2222 89.8254 37.9502 89.093 37.4346C88.3607 36.9191 87.9878 36.1309 87.9878 35.1285C87.9878 34.4983 88.16 33.9111 88.5046 33.3955C88.849 32.8799 89.2655 32.5075 89.8109 32.2355" fill="#FAFAFA"/>
</g>
<defs>
<clipPath id="clip0_25_2729">
<rect width="152" height="40" fill="white"/>
</clipPath>
</defs>
</svg>
