<svg width="40" height="40" viewBox="0 0 40 40" fill="none" xmlns="http://www.w3.org/2000/svg">
<g clip-path="url(#clip0_25_2747)">
<path d="M20.002 8.00073C14.6685 8.00073 11.3363 10.6664 10.002 15.9998C12.0013 13.3339 14.3354 12.3342 17.0013 13.0007C18.5235 13.3801 19.6113 14.4839 20.816 15.707C22.7766 17.6967 25.046 20.0001 30.002 20.0001C35.3351 20.0001 38.6676 17.3342 40.002 11.9995C38.002 14.6668 35.6687 15.667 33.0023 15.0001C31.4804 14.6204 30.3938 13.517 29.1876 12.2939C27.2282 10.3042 24.9595 8.00073 20.002 8.00073ZM10.002 20.0001C4.66883 20.0001 1.33633 22.666 0.00195312 28.0007C2.00174 25.3334 4.33487 24.3332 7.00133 25.0001C8.52352 25.3798 9.61133 26.4832 10.816 27.7064C12.7766 29.696 15.046 31.9995 20.002 31.9995C25.3351 31.9995 28.6676 29.3339 30.002 24.0004C28.002 26.6665 25.6687 27.6662 23.0023 26.9995C21.4804 26.6201 20.3938 25.5164 19.1876 24.2932C17.2282 22.3035 14.9595 20.0001 10.002 20.0001Z" fill="#38BDF8"/>
</g>
<defs>
<clipPath id="clip0_25_2747">
<rect width="40" height="40" fill="white"/>
</clipPath>
</defs>
</svg>
